<svg width="24" height="25" viewBox="0 0 24 25" fill="none" xmlns="http://www.w3.org/2000/svg">
<path fill-rule="evenodd" clip-rule="evenodd" d="M22 12.6972C22 18.2201 17.5228 22.6972 12 22.6972C6.47715 22.6972 2 18.2201 2 12.6972C2 7.17437 6.47715 2.69722 12 2.69722C17.5228 2.69722 22 7.17437 22 12.6972ZM15.7071 8.99011C16.0976 9.38064 16.0976 10.0138 15.7071 10.4043L13.4142 12.6972L15.7071 14.9901C16.0976 15.3806 16.0976 16.0138 15.7071 16.4043C15.3166 16.7949 14.6834 16.7949 14.2929 16.4043L12 14.1114L9.70711 16.4043C9.31658 16.7949 8.68342 16.7949 8.29289 16.4043C7.90237 16.0138 7.90237 15.3806 8.29289 14.9901L10.5858 12.6972L8.29289 10.4043C7.90237 10.0138 7.90237 9.38064 8.29289 8.99011C8.68342 8.59959 9.31658 8.59959 9.70711 8.99011L12 11.283L14.2929 8.99011C14.6834 8.59959 15.3166 8.59959 15.7071 8.99011Z" fill="black"/>
</svg>
