<svg width="25" height="25" viewBox="0 0 25 25" fill="none" xmlns="http://www.w3.org/2000/svg">
<path fill-rule="evenodd" clip-rule="evenodd" d="M19.8475 16.6578C19.7887 16.3334 19.8284 15.9988 19.9615 15.6972C20.0883 15.4015 20.2988 15.1492 20.5671 14.9715C20.8353 14.7939 21.1497 14.6985 21.4715 14.6972H21.5615C22.092 14.6972 22.6007 14.4865 22.9757 14.1114C23.3508 13.7364 23.5615 13.2277 23.5615 12.6972C23.5615 12.1668 23.3508 11.6581 22.9757 11.283C22.6007 10.9079 22.092 10.6972 21.5615 10.6972H21.3915C21.0697 10.6959 20.7553 10.6006 20.4871 10.4229C20.2188 10.2452 20.0083 9.99299 19.8815 9.69722V9.61722C19.7484 9.3156 19.7087 8.98103 19.7675 8.65663C19.8263 8.33224 19.981 8.0329 20.2115 7.79722L20.2715 7.73722C20.4575 7.55147 20.605 7.3309 20.7056 7.0881C20.8063 6.8453 20.8581 6.58505 20.8581 6.32222C20.8581 6.05939 20.8063 5.79914 20.7056 5.55634C20.605 5.31354 20.4575 5.09297 20.2715 4.90722C20.0858 4.72127 19.8652 4.57375 19.6224 4.4731C19.3796 4.37245 19.1194 4.32065 18.8565 4.32065C18.5937 4.32065 18.3334 4.37245 18.0906 4.4731C17.8478 4.57375 17.6273 4.72127 17.4415 4.90722L17.3815 4.96722C17.1458 5.19776 16.8465 5.35241 16.5221 5.41122C16.1977 5.47004 15.8631 5.43034 15.5615 5.29722C15.2658 5.17046 15.0135 4.95998 14.8358 4.69169C14.6582 4.4234 14.5628 4.10901 14.5615 3.78722V3.69722C14.5615 3.16679 14.3508 2.65808 13.9757 2.28301C13.6007 1.90793 13.092 1.69722 12.5615 1.69722C12.0311 1.69722 11.5224 1.90793 11.1473 2.28301C10.7722 2.65808 10.5615 3.16679 10.5615 3.69722V3.86722C10.5602 4.18901 10.4649 4.5034 10.2872 4.77169C10.1095 5.03998 9.85729 5.25046 9.56152 5.37722H9.48152C9.17991 5.51033 8.84533 5.55004 8.52093 5.49122C8.19654 5.43241 7.8972 5.27776 7.66152 5.04722L7.60152 4.98722C7.41578 4.80127 7.1952 4.65375 6.9524 4.5531C6.70961 4.45245 6.44935 4.40065 6.18652 4.40065C5.92369 4.40065 5.66344 4.45245 5.42064 4.5531C5.17785 4.65375 4.95727 4.80127 4.77152 4.98722C4.58557 5.17297 4.43805 5.39354 4.3374 5.63634C4.23676 5.87914 4.18495 6.13939 4.18495 6.40222C4.18495 6.66505 4.23676 6.9253 4.3374 7.1681C4.43805 7.4109 4.58557 7.63147 4.77152 7.81722L4.83152 7.87722C5.06206 8.1129 5.21671 8.41224 5.27553 8.73663C5.33435 9.06103 5.29464 9.3956 5.16152 9.69722C5.04724 10.008 4.84212 10.2771 4.57282 10.4697C4.30353 10.6623 3.98252 10.7695 3.65152 10.7772H3.56152C3.03109 10.7772 2.52238 10.9879 2.14731 11.363C1.77224 11.7381 1.56152 12.2468 1.56152 12.7772C1.56152 13.3077 1.77224 13.8164 2.14731 14.1914C2.52238 14.5665 3.03109 14.7772 3.56152 14.7772H3.73152C4.05331 14.7785 4.3677 14.8739 4.63599 15.0515C4.90428 15.2292 5.11476 15.4815 5.24152 15.7772C5.37464 16.0788 5.41435 16.4134 5.35553 16.7378C5.29671 17.0622 5.14206 17.3615 4.91152 17.5972L4.85152 17.6572C4.66557 17.843 4.51805 18.0635 4.4174 18.3063C4.31676 18.5491 4.26495 18.8094 4.26495 19.0722C4.26495 19.3351 4.31676 19.5953 4.4174 19.8381C4.51805 20.0809 4.66557 20.3015 4.85152 20.4872C5.03727 20.6732 5.25785 20.8207 5.50064 20.9213C5.74344 21.022 6.00369 21.0738 6.26652 21.0738C6.52935 21.0738 6.78961 21.022 7.0324 20.9213C7.2752 20.8207 7.49578 20.6732 7.68152 20.4872L7.74152 20.4272C7.9772 20.1967 8.27654 20.042 8.60093 19.9832C8.92533 19.9244 9.25991 19.9641 9.56152 20.0972C9.87226 20.2115 10.1414 20.4166 10.334 20.6859C10.5266 20.9552 10.6338 21.2762 10.6415 21.6072V21.6972C10.6415 22.2277 10.8522 22.7364 11.2273 23.1114C11.6024 23.4865 12.1111 23.6972 12.6415 23.6972C13.172 23.6972 13.6807 23.4865 14.0557 23.1114C14.4308 22.7364 14.6415 22.2277 14.6415 21.6972V21.5272C14.6428 21.2054 14.7382 20.891 14.9158 20.6228C15.0935 20.3545 15.3458 20.144 15.6415 20.0172C15.9431 19.8841 16.2777 19.8444 16.6021 19.9032C16.9265 19.962 17.2258 20.1167 17.4615 20.3472L17.5215 20.4072C17.7073 20.5932 17.9278 20.7407 18.1706 20.8413C18.4134 20.942 18.6737 20.9938 18.9365 20.9938C19.1994 20.9938 19.4596 20.942 19.7024 20.8413C19.9452 20.7407 20.1658 20.5932 20.3515 20.4072C20.5375 20.2215 20.685 20.0009 20.7856 19.7581C20.8863 19.5153 20.9381 19.2551 20.9381 18.9922C20.9381 18.7294 20.8863 18.4691 20.7856 18.2263C20.685 17.9835 20.5375 17.763 20.3515 17.5772L20.2915 17.5172C20.061 17.2815 19.9063 16.9822 19.8475 16.6578ZM15.5615 12.6972C15.5615 14.3541 14.2184 15.6972 12.5615 15.6972C10.9047 15.6972 9.56152 14.3541 9.56152 12.6972C9.56152 11.0404 10.9047 9.69722 12.5615 9.69722C14.2184 9.69722 15.5615 11.0404 15.5615 12.6972Z" fill="black"/>
</svg>
