<svg fill="none"><defs><svg xmlns="http://www.w3.org/2000/svg" width="25" height="25" viewBox="0 0 25 25" fill="none" id="sun"><g clip-path="url(#clip0_291_195)"><path d="M12.2192 18.9296C15.5329 18.9296 18.2192 16.2433 18.2192 12.9296C18.2192 9.6159 15.5329 6.92961 12.2192 6.92961C8.90553 6.92961 6.21924 9.6159 6.21924 12.9296C6.21924 16.2433 8.90553 18.9296 12.2192 18.9296Z" fill="black"/><path d="M12.2192 1.92961V3.92961" stroke="black" stroke-width="2" stroke-linecap="round" stroke-linejoin="round"/><path d="M12.2192 21.9296V23.9296" stroke="black" stroke-width="2" stroke-linecap="round" stroke-linejoin="round"/><path d="M4.43945 5.14961L5.85945 6.56961" stroke="black" stroke-width="2" stroke-linecap="round" stroke-linejoin="round"/><path d="M18.5791 19.2896L19.9991 20.7096" stroke="black" stroke-width="2" stroke-linecap="round" stroke-linejoin="round"/><path d="M1.21924 12.9296H3.21924" stroke="black" stroke-width="2" stroke-linecap="round" stroke-linejoin="round"/><path d="M21.2192 12.9296H23.2192" stroke="black" stroke-width="2" stroke-linecap="round" stroke-linejoin="round"/><path d="M4.43945 20.7096L5.85945 19.2896" stroke="black" stroke-width="2" stroke-linecap="round" stroke-linejoin="round"/><path d="M18.5791 6.56961L19.9991 5.14961" stroke="black" stroke-width="2" stroke-linecap="round" stroke-linejoin="round"/></g><defs><clipPath id="clip0_291_195"><rect width="24" height="24" fill="white" transform="translate(0.219238 0.929611)"/></clipPath></defs></svg>,<svg xmlns="http://www.w3.org/2000/svg" width="24" height="24" viewBox="0 0 24 24" fill="none" id="moon"><path d="M19.0246 13.8109C19.8452 13.5412 20.8104 14.1511 20.5221 14.9654C20.2047 15.8619 19.7456 16.7069 19.1581 17.4668C18.1125 18.8192 16.7034 19.8458 15.0956 20.4265C13.4878 21.0073 11.7479 21.1181 10.0794 20.7461C8.41092 20.3741 6.8829 19.5345 5.67413 18.3258C4.46536 17.117 3.62584 15.589 3.25381 13.9205C2.88178 12.252 2.99262 10.5121 3.57336 8.9043C4.15411 7.29651 5.18073 5.88737 6.53311 4.84175C7.29296 4.25427 8.13799 3.79519 9.03452 3.47779C9.84881 3.18951 10.4587 4.15466 10.189 4.97529C9.90472 5.84025 9.78966 6.75919 9.85843 7.68141C9.98312 9.35338 10.7038 10.9251 11.8893 12.1106C13.0748 13.2961 14.6465 14.0168 16.3185 14.1415C17.2407 14.2102 18.1597 14.0952 19.0246 13.8109Z" fill="black"/></svg></defs></svg>