<svg width="45" height="45" viewBox="0 0 45 45" fill="none" xmlns="http://www.w3.org/2000/svg">
<path d="M23.3075 41C18.1359 41 13.2835 39.0356 9.64388 35.469C6.00431 31.9024 4 27.1467 4 22.0785C3.99923 18.5822 4.98707 15.1541 6.85388 12.1746C8.72069 9.19519 11.3934 6.78098 14.5755 5.19995C14.9028 5.0364 15.2721 4.97098 15.6372 5.01184C16.0023 5.0527 16.347 5.19804 16.6283 5.42971C16.9096 5.66138 17.1151 5.96911 17.219 6.31451C17.323 6.6599 17.3208 7.02765 17.2128 7.37184C16.3048 10.2461 16.2155 13.3088 16.9547 16.2291C17.6939 19.1494 19.2333 21.8163 21.4068 23.9414C22.9665 25.4813 24.8224 26.7027 26.867 27.5349C28.9117 28.3671 31.1044 28.7936 33.3184 28.7897C35.0121 28.791 36.6963 28.5421 38.3142 28.0513C38.6655 27.9454 39.0408 27.9432 39.3933 28.045C39.7457 28.1469 40.0598 28.3482 40.2962 28.6239C40.5327 28.8997 40.681 29.2375 40.7226 29.5953C40.7643 29.9532 40.6975 30.3151 40.5305 30.6359C38.9172 33.7543 36.4537 36.3736 33.4135 38.2031C30.3733 40.0326 26.8752 41.0007 23.3075 41V41ZM14.5087 7.98288C12.0412 9.45417 10.0029 11.5246 8.59095 13.9939C7.17903 16.4633 6.44127 19.2479 6.44904 22.0785C6.44904 31.1884 14.0117 38.6 23.3075 38.6C26.1959 38.6076 29.0373 37.8846 31.5571 36.5009C34.0768 35.1172 36.1895 33.1197 37.6909 30.7015C36.2571 31.0267 34.7902 31.1906 33.3186 31.19C30.7829 31.1948 28.2714 30.7065 25.9295 29.7537C23.5876 28.8008 21.4619 27.4021 19.6753 25.6387C17.3543 23.3685 15.662 20.5561 14.758 17.467C13.854 14.3779 13.7682 11.114 14.5087 7.98333V7.98288Z" fill="white"/>
</svg>
